<?xml version="1.0" encoding="utf-8"?>
<!-- Generator: Adobe Illustrator 19.0.0, SVG Export Plug-In . SVG Version: 6.00 Build 0)  -->
<svg version="1.1" id="Layer_1" xmlns="http://www.w3.org/2000/svg" xmlns:xlink="http://www.w3.org/1999/xlink" x="0px" y="0px"
	 viewBox="0 0 512 512" style="enable-background:new 0 0 512 512;" xml:space="preserve">
<style type="text/css">
	.st0{fill:#BDC3C7;}
	.st1{fill:#7F8C8D;}
	.st2{fill:#95A5A6;}
	.st3{fill:#ECF0F1;}
	.st4{fill:#3498DB;}
	.st5{fill:#2980B9;}
</style>
<g id="XMLID_1_">
	<polygon id="XMLID_3_" class="st0" points="289.1,121.8 201.6,266 324.5,318 319.8,355.8 341.1,377.1 490.7,313.3 453.7,247.9 
		472.6,230.5 428.5,204.6 405.7,163.6 375.7,173.8 	"/>
	<path id="XMLID_4_" class="st1" d="M106.3,163.6C78,212.4,49.6,262.1,21.3,313.3l244.2,96.1c9.5,8.7,24.4,12.6,36.2,6.3
		c11-3.9,1.6-33.9,16.5-18.9c19.7,8.7,35.4-15,31.5-32.3c11,12.6,36.2,12.6,41.7-6.3c2.4-8.7-4.7-25.2,11-18.9
		c18.1,0,25.2-18.9,22.8-36.2c-7.9-11-22.8-18.9-33.9-27.6c-52.8-38.6-104.8-74.8-157.5-111.1H106.3V163.6z"/>
	<path id="XMLID_5_" class="st2" d="M106.3,163.6c-16.5,27.6-32.3,55.1-48.8,85.1h297.7c-40.2-29.9-81.1-57.5-121.3-85.1H106.3
		L106.3,163.6z"/>
	<polygon id="XMLID_6_" class="st3" points="21.3,355.8 63.8,377.1 149.7,163.6 21.3,99.8 	"/>
	<polygon id="XMLID_7_" class="st3" points="21.3,248.7 21.3,355.8 63.8,377.1 115,248.7 	"/>
	<polygon id="XMLID_8_" class="st4" points="0,355.8 42.5,377.1 128.4,142.3 0,78.5 	"/>
	<polygon id="XMLID_9_" class="st5" points="0,248.7 0,355.8 42.5,377.1 89,248.7 	"/>
	<path id="XMLID_10_" class="st0" d="M286.7,118.7c-15-8.7-34.7-3.9-43.3,12.6l-15.8,27.6l-15.8,27.6L193,226.6l21.3,21.3
		c15,8.7,44.1-15,53.6-29.9l32.3-55.1C307.2,146.3,302.5,127.4,286.7,118.7L286.7,118.7z"/>
	<path id="XMLID_11_" class="st0" d="M107.1,319.6c-11-3.9-22.8,2.4-26,15l-11,40.2c-3.2,11,3.9,23.6,15,25.2c11,3.9,22.8-3.9,26-15
		c-3.2,11,3.9,23.6,15,25.2c11,3.9,22.8-2.4,26-15c-3.2,12.6,3.9,23.6,15,27.6c11,2.4,22.8-3.9,26-17.3c-3.2,12.6,3.9,23.6,15,27.6
		c11,2.4,22.8-3.9,26-15l11-42.5c3.2-11-3.9-23.6-15-25.2c-11-2.4-22.8,3.9-26,15c3.2-11-3.9-23.6-15-25.2c-11-3.9-22.8,3.9-26,15
		c3.2-11-3.9-23.6-15-25.2c-11-3.9-22.8,2.4-26,15C125.2,332.2,118.2,321.1,107.1,319.6L107.1,319.6z"/>
	<polygon id="XMLID_12_" class="st3" points="490.7,355.8 448.2,377.1 362.3,163.6 490.7,99.8 	"/>
	<polygon id="XMLID_13_" class="st4" points="512,355.8 469.5,377.1 384.4,142.3 512,78.5 	"/>
	<polygon id="XMLID_14_" class="st5" points="512,248.7 512,355.8 469.5,377.1 423,248.7 	"/>
</g>
</svg>
