<?xml version="1.0" encoding="utf-8"?>
<!-- Generator: Adobe Illustrator 28.3.0, SVG Export Plug-In . SVG Version: 6.00 Build 0)  -->
<svg version="1.1" id="Layer_1" xmlns="http://www.w3.org/2000/svg" xmlns:xlink="http://www.w3.org/1999/xlink" x="0px" y="0px"
	 viewBox="0 0 512 512" style="enable-background:new 0 0 512 512;" xml:space="preserve">
<style type="text/css">
	.st0{fill:#3E3E3E;}
	.st1{fill:#37D7FF;}
</style>
<g>
	<path class="st0" d="M2.68,197.72v115.2c0,10.1,8.19,18.29,18.29,18.29s18.29-8.19,18.29-18.29v-115.2
		c0-10.1-8.19-18.29-18.29-18.29S2.68,187.62,2.68,197.72"/>
	<path class="st0" d="M2.68,18.3v115.2c0,10.1,8.19,18.29,18.29,18.29s18.29-8.19,18.29-18.29V18.3c0-10.1-8.19-18.29-18.29-18.29
		S2.68,8.2,2.68,18.3"/>
	<path class="st0" d="M2.68,377.17v115.2c0,10.1,8.19,18.29,18.29,18.29s18.29-8.19,18.29-18.29v-115.2
		c0-10.1-8.19-18.29-18.29-18.29S2.68,367.07,2.68,377.17"/>
	<path class="st0" d="M226.89,18.3v115.2c0,10.1,8.19,18.29,18.29,18.29c10.1,0,18.29-8.19,18.29-18.29V18.3
		c0-10.1-8.19-18.29-18.29-18.29C235.08,0.02,226.89,8.2,226.89,18.3"/>
	<path class="st0" d="M295.53,18.3v115.2c0,10.1,8.19,18.29,18.29,18.29c10.1,0,18.29-8.19,18.29-18.29V18.3
		c0-10.1-8.19-18.29-18.29-18.29C303.72,0.02,295.53,8.2,295.53,18.3"/>
	<path class="st0" d="M74.87,197.72v115.2c0,10.1,8.19,18.29,18.29,18.29c10.1,0,18.29-8.19,18.29-18.29v-115.2
		c0-10.1-8.19-18.29-18.29-18.29C83.05,179.43,74.87,187.62,74.87,197.72"/>
	<path class="st0" d="M93.77,61.24h18.29c0.02-13.62,11.05-24.64,24.67-24.67c13.62,0.02,24.64,11.05,24.67,24.67v28.63
		c-0.02,13.63-11.06,24.66-24.68,24.68c-13.63-0.02-24.66-11.06-24.68-24.68V61.24H93.74v18.28h0.04c4.82,0,9.52-1.95,12.93-5.36
		c3.4-3.4,5.36-8.11,5.36-12.93H93.77V42.95h-0.04c-4.82,0-9.52,1.95-12.93,5.36c-3.4,3.4-5.36,8.11-5.36,12.93v28.63
		c0.01,33.84,27.42,61.24,61.25,61.25c33.84-0.01,61.24-27.42,61.25-61.25V61.24C197.95,27.41,170.55,0.01,136.73,0
		C102.9,0.01,75.5,27.41,75.49,61.24H93.77V42.95V61.24z"/>
	<path class="st0" d="M158.8,240.65h18.29c0.02-13.62,11.05-24.64,24.67-24.67c13.62,0.02,24.64,11.05,24.67,24.67v28.63
		c-0.02,13.62-11.05,24.64-24.67,24.67c-13.62-0.02-24.64-11.05-24.67-24.67v-28.6v-0.04H158.8h-18.29v0.04v28.6
		c0.01,33.83,27.41,61.22,61.24,61.24c33.83-0.01,61.22-27.41,61.24-61.24v-28.63c-0.01-33.83-27.41-61.22-61.24-61.24
		c-33.83,0.01-61.22,27.41-61.24,61.24H158.8z"/>
	<path class="st0" d="M93.77,420.76h18.29c0.02-13.62,11.05-24.64,24.67-24.67c13.62,0.02,24.64,11.05,24.67,24.67v28.63
		c-0.02,13.63-11.06,24.66-24.68,24.68c-13.63-0.02-24.66-11.06-24.68-24.68v-28.63H93.74v18.29h0.04c4.82,0,9.52-1.95,12.93-5.36
		c3.4-3.4,5.36-8.11,5.36-12.93H93.77v-18.29h-0.04c-4.82,0-9.52,1.95-12.93,5.36c-3.4,3.4-5.36,8.11-5.36,12.93v28.63
		c0.01,33.84,27.42,61.24,61.25,61.25c33.84-0.01,61.24-27.42,61.25-61.25v-28.63c-0.01-33.83-27.41-61.22-61.24-61.24
		c-33.83,0.01-61.22,27.41-61.24,61.24H93.77v-18.29V420.76z"/>
	<path class="st1" d="M289.9,347.43h182.85c10.97,0,18.29,7.31,18.29,18.29v109.71c0,10.97-7.31,18.29-18.29,18.29H289.9
		c-10.97,0-18.29-7.31-18.29-18.29V365.72C271.61,354.75,278.93,347.43,289.9,347.43z"/>
	<path class="st0" d="M289.9,347.43v18.29h182.85v0v109.71H289.9l0,0V365.72v0V347.43v-18.29c-9.49-0.07-19.26,3.39-26.19,10.38
		c-6.99,6.92-10.45,16.69-10.38,26.19v109.71c-0.07,9.49,3.39,19.26,10.38,26.19c6.92,6.99,16.69,10.45,26.19,10.38l0,0h182.85l0,0
		c9.49,0.07,19.26-3.39,26.19-10.38c6.99-6.92,10.45-16.69,10.38-26.19V365.72c0.07-9.49-3.39-19.26-10.38-26.19
		c-6.92-6.99-16.69-10.45-26.19-10.38H289.9V347.43z"/>
	<path class="st0" d="M326.47,347.43v-36.57c0.05-30.05,24.81-54.8,54.86-54.86c30.05,0.05,54.8,24.81,54.86,54.86v36.57
		c0,10.1,8.19,18.29,18.29,18.29s18.29-8.19,18.29-18.29v-36.57c-0.07-50.41-41.02-91.36-91.43-91.43
		c-50.41,0.07-91.36,41.02-91.43,91.43v36.57c0,10.1,8.19,18.29,18.29,18.29C318.28,365.72,326.47,357.53,326.47,347.43z"/>
</g>
</svg>
