<?xml version="1.0" encoding="utf-8"?>
<svg width="60px" height="60px" viewBox="0 0 60 60" fill="none" xmlns="http://www.w3.org/2000/svg" class="typh-logo-svg" xmlns:bx="https://boxy-svg.com">
  <g transform="matrix(1.25, 0, 0, 1.25, -41.427498, -8.308749)">
    <path style="fill: rgb(255, 255, 255); stroke-width: 1;" d="M 34.838 20.072 H 77.294 A 2.152 2.152 0 0 1 79.446 22.224 V 41.222 A 0 0 0 0 1 79.446 41.222 H 36.99 A 2.152 2.152 0 0 1 34.838 39.07 V 20.072 A 0 0 0 0 1 34.838 20.072 Z" bx:shape="rect 34.838 20.072 44.608 21.15 0 0 0 0 2.152 2.152 0 0 0 0 2.152 2.152 2@1a60accf"/>
    <path fill="#FF4800" d="M 74.822 18.647 L 33.862 18.647 C 33.462 18.647 33.142 18.967 33.142 19.367 L 33.142 36.327 C 33.142 40.167 35.622 42.647 39.462 42.647 L 80.422 42.647 C 80.822 42.647 81.142 42.327 81.142 41.927 L 81.142 24.967 C 81.142 21.127 78.662 18.647 74.822 18.647 Z M 43.382 33.687 L 44.582 33.687 C 45.222 33.687 45.702 34.167 45.702 34.807 C 45.702 35.447 45.142 35.927 44.502 35.927 L 43.302 35.927 C 40.822 35.927 38.982 33.927 39.062 31.447 L 39.142 29.127 L 37.942 29.127 C 37.302 29.127 36.822 28.647 36.822 28.007 C 36.822 27.367 37.382 26.887 38.022 26.887 L 39.142 26.887 L 39.222 25.447 C 39.222 24.807 39.782 24.247 40.342 24.247 C 40.982 24.247 41.462 24.727 41.462 25.367 L 41.382 26.807 L 44.502 26.807 C 45.142 26.807 45.622 27.287 45.622 27.927 C 45.622 28.567 45.062 29.047 44.422 29.047 L 41.302 29.047 L 41.302 31.447 C 41.222 32.647 42.102 33.687 43.382 33.687 Z M 54.902 31.367 C 54.822 33.847 53.542 35.847 50.742 35.847 C 47.942 35.847 46.662 33.847 46.742 31.367 L 46.822 28.007 C 46.822 27.367 47.382 26.887 48.022 26.887 C 48.662 26.887 49.142 27.367 49.142 28.007 L 49.062 31.367 C 49.062 32.567 49.542 33.607 50.822 33.607 C 52.102 33.607 52.662 32.647 52.742 31.367 L 52.822 28.007 C 52.822 27.367 53.382 26.887 54.022 26.887 C 54.662 26.887 55.142 27.367 55.142 28.007 L 54.902 31.367 Z M 64.102 35.287 C 63.942 37.767 61.782 39.287 59.382 39.287 C 58.742 39.287 58.262 38.807 58.342 38.167 C 58.342 37.527 58.902 37.047 59.542 37.047 C 60.742 37.047 61.862 36.487 61.942 35.287 C 61.462 35.767 60.902 35.927 60.102 35.927 C 57.622 35.927 56.102 33.927 56.262 31.447 L 56.422 28.087 C 56.422 27.447 56.982 26.967 57.622 26.967 C 58.262 26.967 58.742 27.447 58.662 28.087 L 58.502 31.447 C 58.422 32.647 58.982 33.687 60.182 33.687 C 61.382 33.687 62.022 32.727 62.102 31.447 L 62.262 28.087 C 62.262 27.447 62.822 26.967 63.462 26.967 C 64.102 26.967 64.582 27.447 64.502 28.087 L 64.102 35.287 Z M 74.422 34.327 C 74.422 34.967 73.862 35.447 73.222 35.447 C 72.582 35.447 72.102 34.967 72.102 34.327 L 72.182 31.207 C 72.262 30.007 71.302 28.967 70.022 28.967 C 68.822 28.967 67.782 29.927 67.702 31.207 C 67.622 32.407 68.582 33.447 69.862 33.447 C 70.502 33.447 70.982 33.927 70.982 34.567 C 70.982 35.207 70.422 35.687 69.782 35.687 C 67.302 35.687 65.382 33.767 65.462 31.287 C 65.542 28.807 67.622 26.727 70.102 26.727 C 72.582 26.727 74.502 28.727 74.422 31.207 L 74.422 34.327 Z M 76.182 26.807 C 76.102 27.207 75.782 27.447 75.462 27.447 C 75.462 27.447 75.382 27.447 75.382 27.447 C 74.982 27.367 74.662 27.047 74.742 26.647 L 74.822 26.647 L 74.742 26.647 C 74.742 26.327 74.662 26.007 74.422 25.847 C 74.182 25.687 73.862 25.607 73.542 25.767 C 73.142 25.927 72.742 25.767 72.582 25.367 C 72.422 25.047 72.582 24.647 72.902 24.407 L 72.982 24.407 C 73.782 24.007 74.742 24.167 75.382 24.647 C 75.942 25.047 76.342 25.927 76.182 26.807 Z M 78.902 26.727 C 78.822 27.127 78.502 27.367 78.182 27.367 C 78.182 27.367 78.102 27.367 78.102 27.367 C 77.862 27.367 77.702 27.207 77.622 27.047 C 77.542 26.887 77.462 26.727 77.462 26.487 C 77.622 25.287 77.142 24.087 76.102 23.367 C 75.142 22.647 73.862 22.487 72.742 23.047 C 72.582 23.127 72.342 23.127 72.182 23.047 C 72.022 22.967 71.862 22.807 71.782 22.647 C 71.622 22.247 71.782 21.847 72.102 21.687 C 73.702 20.967 75.542 21.127 76.982 22.167 C 78.342 23.207 79.062 24.967 78.902 26.727 Z" style="stroke-width: 1;"/>
  </g>
</svg>